<svg width="22" height="29" viewBox="0 0 22 29" fill="none" xmlns="http://www.w3.org/2000/svg">
<g clip-path="url(#clip0_2345_146559)">
<path d="M0.300781 15.2969C0.300781 21.0508 4.91797 25.668 10.6602 25.668C16.4024 25.668 21.0078 21.0508 21.0078 15.2969C21.0078 14.7344 20.6094 14.3242 20.0352 14.3242C19.4844 14.3242 19.1211 14.7344 19.1211 15.2969C19.1211 20.0078 15.3594 23.7813 10.6602 23.7813C5.96094 23.7813 2.1875 20.0078 2.1875 15.2969C2.1875 10.5977 5.96094 6.83594 10.6602 6.83594C11.5508 6.83594 12.3828 6.90625 13.0742 7.07031L9.57031 10.5391C9.39453 10.7266 9.30078 10.9609 9.30078 11.207C9.30078 11.7461 9.69922 12.1445 10.2266 12.1445C10.5196 12.1445 10.7422 12.0508 10.9063 11.875L15.7344 7.02344C15.9453 6.82422 16.0274 6.58984 16.0274 6.32031C16.0274 6.0625 15.9219 5.80469 15.7344 5.61719L10.9063 0.71875C10.7422 0.53125 10.5078 0.4375 10.2266 0.4375C9.69922 0.4375 9.30078 0.859375 9.30078 1.39844C9.30078 1.64453 9.39453 1.87891 9.55859 2.06641L12.6758 5.14844C12.0664 5.03125 11.375 4.94922 10.6602 4.94922C4.91797 4.94922 0.300781 9.55469 0.300781 15.2969Z" fill="black" fill-opacity="0.85"/>
</g>
<defs>
<clipPath id="clip0_2345_146559">
<rect width="21.0586" height="28.043" fill="white" transform="translate(0.300781 0.4375)"/>
</clipPath>
</defs>
</svg>
